<?xml version="1.0" encoding="UTF-8" standalone="no"?>
  <svg xmlns="http://www.w3.org/2000/svg" version="1.1" width="300" height="300">
<line x1="50" x2="50" y1="160" y2="220" stroke-width="1" stroke="black" />
<rect x="42" y="120" width="16" height="40" />
<line x1="75" x2="100" y1="235" y2="235" stroke-width="1" stroke="black" />
<line x1="50" x2="200" y1="275" y2="275" stroke-width="1" stroke="black" />
<circle cx="50" cy="180" r="3" fill="black" stroke="black" />
<line x1="50" x2="50" y1="100" y2="120" stroke-width="1" stroke="black" />
<line x1="200" x2="175" y1="250" y2="240" stroke-width="1" stroke="black" /><rect x="173" y="238" height="3" width="6" />
<line x1="75" x2="75" y1="220" y2="250" stroke-width="3" stroke="black" />
<circle cx="100" cy="100" r="3" fill="black" stroke="black" />
<line x1="100" x2="100" y1="160" y2="180" stroke-width="1" stroke="black" />
<line x1="200" x2="175" y1="220" y2="230" stroke-width="1" stroke="black" />
<line x1="110" x2="140" y1="290" y2="290" stroke-width="1" stroke="black" />
<line x1="178" x2="178" y1="165" y2="195" stroke-width="1" stroke="black" />
<line x1="200" x2="200" y1="160" y2="220" stroke-width="1" stroke="black" />
<line x1="100" x2="150" y1="180" y2="235" stroke-width="1" stroke="black" />
<line x1="150" x2="100" y1="180" y2="235" stroke-width="1" stroke="black" />
<line x1="200" x2="200" y1="250" y2="275" stroke-width="1" stroke="black" />
<line x1="200" x2="200" y1="100" y2="120" stroke-width="1" stroke="black" />
<circle cx="125" cy="275" r="3" fill="black" stroke="black" />
<line x1="78" x2="78" y1="165" y2="195" stroke-width="1" stroke="black" />
<line x1="50" x2="250" y1="100" y2="100" stroke-width="1" stroke="black" /><rect x="248" y="98" height="3" width="6" />
<circle cx="100" cy="180" r="3" fill="black" stroke="black" />
<line x1="100" x2="100" y1="100" y2="120" stroke-width="1" stroke="black" />
<rect x="92" y="120" width="16" height="40" />
<circle cx="200" cy="100" r="3" fill="black" stroke="black" />
<circle cx="200" cy="180" r="3" fill="black" stroke="black" />
<line x1="50" x2="72" y1="180" y2="180" stroke-width="1" stroke="black" />
<line x1="72" x2="72" y1="165" y2="195" stroke-width="1" stroke="black" />
<circle cx="70" cy="235" r="25" fill="none" stroke="black" />
<line x1="150" x2="150" y1="100" y2="120" stroke-width="1" stroke="black" />
<line x1="125" x2="125" y1="275" y2="290" stroke-width="1" stroke="black" />
<line x1="78" x2="100" y1="180" y2="180" stroke-width="1" stroke="black" />
<line x1="150" x2="172" y1="180" y2="180" stroke-width="1" stroke="black" />
<circle cx="180" cy="235" r="25" fill="none" stroke="black" />
<line x1="172" x2="172" y1="165" y2="195" stroke-width="1" stroke="black" />
<circle cx="150" cy="180" r="3" fill="black" stroke="black" />
<line x1="178" x2="250" y1="180" y2="180" stroke-width="1" stroke="black" /><rect x="248" y="178" height="3" width="6" />
<line x1="150" x2="150" y1="160" y2="180" stroke-width="1" stroke="black" />
<line x1="175" x2="150" y1="235" y2="235" stroke-width="1" stroke="black" />
<rect x="142" y="120" width="16" height="40" />
<line x1="50" x2="50" y1="250" y2="275" stroke-width="1" stroke="black" />
<circle cx="150" cy="100" r="3" fill="black" stroke="black" />
<rect x="192" y="120" width="16" height="40" />
<line x1="50" x2="75" y1="220" y2="230" stroke-width="1" stroke="black" />
<line x1="175" x2="175" y1="220" y2="250" stroke-width="3" stroke="black" />
<line x1="50" x2="75" y1="250" y2="240" stroke-width="1" stroke="black" /><rect x="73" y="238" height="3" width="6" />
</svg>
